<?xml version="1.0" encoding="utf-8"?>
<!-- Generator: Adobe Illustrator 22.1.0, SVG Export Plug-In . SVG Version: 6.00 Build 0)  -->
<svg version="1.1" id="Layer_1" xmlns="http://www.w3.org/2000/svg" xmlns:xlink="http://www.w3.org/1999/xlink" x="0px" y="0px"
	 viewBox="0 0 421 167" style="enable-background:new 0 0 421 167;" xml:space="preserve">
<style type="text/css">
	.st0{fill:#0091D2;}
	.st1{fill:#D62631;}
	.st2{fill:#284592;}
	.st3{fill:#434242;}
</style>
<g id="_2419053157680">
	<path class="st0" d="M51.9,75c1.4-5,6.6-29.1,28.9-45.1C63,37.8,53.1,58.2,51.9,75z"/>
	<path class="st0" d="M45.6,150.3c29.7-28.2,10.2-57,26.9-80.6C61.4,98.5,91.9,133.9,45.6,150.3z"/>
	<path class="st1" d="M51.8,83.2c7.3-25,15.8-32.5,24.7-37.3c0.1-0.3,4.1-12.1,4.1-12.2C65.7,40.3,53.9,63.2,51.8,83.2z"/>
	<path class="st2" d="M45.6,143.6C10.3,85.2,62,61.3,45.6,16C50.6,67-16.7,95.8,45.6,143.6z"/>
	<path class="st3" d="M87.5,76.5c0-0.4,0.1-9.5,0.2-10c0.3,0.4,3.6,8.5,4.2,10.1c0.3,0.6,5,11.8,5.1,12c0.2,0.4,0.4,0.6,0.6,0.6
		c0.4,0,0.7-0.5,0.9-0.8c0.2-0.3,3.4-8.3,4.1-9.9c0.6-1.5,4.7-11.3,5-11.9h0.4v11c0,2.5-0.1,9.1-0.2,9.5c-0.1,1-0.4,1.2-1,1.2h-2
		c-0.3,0-0.3,0.1-0.3,0.2v0.9c0,0.2,0,0.3,0.3,0.3c0.5,0,1.9-0.1,5.5-0.1c4.2,0,4.9,0.1,5.3,0.1c0.3,0,0.3-0.1,0.3-0.3v-0.9
		c0-0.1,0-0.2-0.3-0.2H114c-0.5,0-0.8-0.6-0.8-1.9c0-0.7-0.1-8.5-0.1-9.2C113,76.4,113,67.5,113,67c0-0.8,0.1-1.4,0.9-1.4h1.6
		c0.2,0,0.3-0.1,0.3-0.3v-0.8c0-0.2,0-0.3-0.2-0.3c-0.4,0-1.6,0.1-7.2,0.1c-1.1,0-1.5,0-1.7,0.4c-0.2,0.7-3.8,9.3-3.9,9.7
		c-0.2,0.5-2.9,7.2-3.3,7.9c-2-5.4-4.6-11.4-6.9-17.5c-0.2-0.6-0.5-0.6-0.9-0.6s-1.5,0.1-3.2,0.1c-4.3,0-5.2-0.1-5.6-0.1
		c-0.2,0-0.3,0.1-0.3,0.2v1c0,0.1,0,0.3,0.3,0.3H84c1.6,0,2,1.1,2,2.7v5.5c0,0.7-0.3,9.1-0.7,11.7c-0.1,1.2-0.6,2.8-1.7,2.8h-1.5
		c-0.2,0-0.2,0.1-0.2,0.2v0.9c0,0.3,0,0.3,0.3,0.3s1.6-0.1,4.6-0.1c2.6,0,3.6,0.1,4,0.1c0.3,0,0.3-0.1,0.3-0.2v-1
		c0-0.1-0.1-0.2-0.3-0.2h-1.4c-1.2,0-1.8-2-1.9-3.3C87.5,81.8,87.5,76.9,87.5,76.5z M135.7,79.8c0.4,1.3,1.8,5.9,2.2,7.2
		c0.2,0.9-0.1,1.3-1.1,1.3h-1c-0.2,0-0.2,0.1-0.2,0.3v0.7c0,0.3,0,0.5,0.4,0.5c0.7,0,2-0.1,5-0.1c4.6,0,5.4,0.1,6,0.1
		c0.3,0,0.3-0.2,0.3-0.5v-0.7c0-0.2-0.1-0.3-0.3-0.3h-1.2c-0.5,0-1.5-0.4-2.1-1.6c-0.5-1-2.8-7.7-3.7-10.5
		c-0.7-2.3-3.5-10.4-4.2-12.6c-0.1-0.4-0.2-0.6-0.4-0.6s-0.3,0.2-0.5,0.3c-0.5,0.6-2.9,1.5-4,1.8c-0.3,0.1-0.4,0.2-0.4,0.3
		c0,0.2,0.2,0.3,0.3,0.5c0.3,0.4,0.1,0.9,0,1.2c-0.3,1-3.2,8.7-3.5,9.4c-1.2,3.2-3.7,9.4-4.2,10.2c-0.7,1.1-1.6,1.6-2.4,1.6h-0.9
		c-0.2,0-0.2,0.1-0.2,0.3v0.7c0,0.3,0,0.5,0.2,0.5c0.5,0,1.3-0.1,3.9-0.1c2.9,0,4.4,0.1,4.9,0.1c0.3,0,0.3-0.1,0.3-0.4v-0.8
		c0-0.2,0-0.3-0.4-0.3h-1.3c-1.1,0-1.4-0.9-1.4-1.7c0-1.2,1.8-6.1,2-6.8C127.8,79.8,135.7,79.8,135.7,79.8z M128.3,78.4
		c0.3-0.9,3.4-9.4,3.5-9.8c0.1-0.3,0.2-0.5,0.4-0.5c0.2,0,0.3,0.2,0.4,0.8c0.3,0.9,2.4,8.5,2.7,9.5H128.3z M174.2,82.5h-0.1
		c-0.4-0.5-5.6-7-6.1-7.7c-1.1-1.3-8.2-10-8.3-10.2c-0.3-0.3-0.6-0.5-1-0.5s-1.5,0.1-2.7,0.1c-1.9,0-3,0-3.8-0.1c-0.7,0-1,0-1.1,0
		c-0.2,0-0.2,0.1-0.2,0.2v1c0,0.1,0,0.2,0.2,0.2l0.9,0.1c1.8,0,3.1,2,3.1,4.2V73c0,5.3-0.3,11.1-0.3,11.8c-0.2,2.4-0.8,3.6-1.5,3.6
		H152c-0.2,0-0.2,0.1-0.2,0.2v0.9c0,0.2,0,0.3,0.2,0.3c0.4,0,2.8-0.1,3.9-0.1c1.7,0,3.9,0.1,4.2,0.1s0.3-0.1,0.3-0.3v-0.9
		c0-0.2,0-0.3-0.3-0.3H159c-1.5,0-2.2-1.1-2.2-3.2c0-1.4-0.4-5.8-0.4-8.8V69h0.3c0.8,1.2,5.8,7.4,6.4,8.1c0.7,0.8,3.6,4.3,6.1,7.3
		c2.2,2.6,3.9,4.5,4.5,5c0.4,0.4,0.9,0.6,1.4,0.6s0.5-0.6,0.5-1.2v-6.1c0-4.8,0.6-12.9,0.8-15.3c0.1-1.3,0.5-1.9,1.1-1.9h1
		c0.2,0,0.2-0.2,0.2-0.3v-0.9c0-0.2,0-0.3-0.4-0.3s-1.3,0.1-3.4,0.1c-2.7,0-3.8-0.1-4.2-0.1c-0.3,0-0.3,0.1-0.3,0.3v0.9
		c0,0.2,0,0.3,0.2,0.3h1.2c0.8,0,1.7,0.5,1.9,1.4c0.1,0.5,0.3,4.1,0.3,5.5c0.1,1.8,0.1,3.5,0.1,6.7L174.2,82.5L174.2,82.5z
		 M188.1,77.1c0,1.9-0.1,9.7-0.2,10.2c-0.1,0.9-0.9,1-1.6,1h-1c-0.2,0-0.3,0.1-0.3,0.2v1c0,0.2,0.1,0.3,0.3,0.3
		c0.4,0,1.9-0.1,5.7-0.1c3.4,0,4.9,0.1,5.3,0.1c0.2,0,0.3-0.1,0.3-0.2v-1c0-0.2-0.1-0.2-0.3-0.2h-1.5c-0.7,0-1.2-0.2-1.2-1.3
		c0-0.3-0.1-8.6-0.1-9v-2.8c0-0.4,0.1-8.4,0.1-8.7c0-0.7,0.5-0.9,1.4-0.9h1.1c0.2,0,0.3-0.1,0.3-0.3v-0.9c0-0.2-0.1-0.3-0.2-0.3
		c-0.5,0-1.7,0.1-5.3,0.1c-3.5,0-5.4-0.1-5.8-0.1c-0.1,0-0.2,0.1-0.2,0.2v1.1c0,0.1,0.1,0.2,0.3,0.2h1.7c0.7,0,1.1,0.3,1.2,1.2
		c0,0.5,0.1,6.9,0.1,7.8v2.4H188.1L188.1,77.1z M190.9,61.4c1.2,0,2.2-1,2.2-2.3c0-1.6-1.1-2.5-2.2-2.5c-2,0-2.6,1.5-2.6,2.3
		C188.3,61,189.9,61.4,190.9,61.4z M204.7,81.7c-0.1,0-0.2,0-0.3,0.3l-0.6,6.8c0,0.4,0.1,0.6,0.5,0.6c0.3,0,0.4,0,0.7-0.4
		c0.2-0.4,0.4-0.6,0.6-0.6c0.2,0,0.4,0.1,0.8,0.4c1.5,1,3.2,1.5,6.4,1.5c4.8,0,7.9-3.6,7.9-8c0-2.5-0.6-4.1-2-5.4
		c-1.5-1.3-2.9-2.2-4.6-2.7c-1.8-0.5-3.8-1.4-4.8-2.3c-0.9-0.9-0.9-2-0.9-3.3c0-0.9,1.1-3.3,3.8-3.3c1.6,0,2.7,0.5,3.6,1.5
		c1.2,1.3,1.8,2.7,2.2,3.7c0.1,0.2,0.3,0.3,0.5,0.2l0.8-0.2c0.1,0,0.2-0.1,0.2-0.2l-0.6-6.1c0-0.2-0.1-0.6-0.3-0.6s-0.4,0.1-0.6,0.2
		l-0.5,0.5c-0.2,0.3-0.5,0.3-0.8,0.2c-0.8-0.3-2.2-0.7-4.8-0.7c-2.2,0-3.6,0.5-5.2,1.7c-2.2,1.6-2.7,3.1-2.7,5.3
		c0,2.1,0.5,4,1.8,5.1c1.8,1.6,4.1,2.7,5.2,3.1c4.7,1.8,5.3,2.6,5.3,5.6c0,2.8-2.8,4-4.5,4s-3.5-0.8-4.5-2.4
		c-0.9-1.4-1.4-2.9-1.4-4.1c0-0.2-0.1-0.3-0.2-0.3L204.7,81.7z M241,79.8c0.4,1.3,1.8,5.9,2.2,7.2c0.2,0.9-0.1,1.3-1.1,1.3h-1
		c-0.2,0-0.2,0.1-0.2,0.3v0.7c0,0.3,0,0.5,0.4,0.5c0.7,0,2-0.1,5-0.1c4.6,0,5.4,0.1,6,0.1c0.3,0,0.3-0.2,0.3-0.5v-0.7
		c0-0.2,0-0.3-0.3-0.3h-1.2c-0.5,0-1.5-0.4-2.1-1.6c-0.5-1-2.8-7.7-3.7-10.5c-0.7-2.3-3.5-10.4-4.2-12.6c-0.1-0.4-0.2-0.6-0.4-0.6
		s-0.3,0.2-0.5,0.3c-0.6,0.6-2.9,1.5-4,1.8c-0.3,0.1-0.4,0.2-0.4,0.3c0,0.2,0.1,0.3,0.2,0.5c0.3,0.4,0.1,0.9,0,1.2
		c-0.3,1-3.2,8.7-3.5,9.4c-1.2,3.2-3.8,9.4-4.3,10.2c-0.7,1.1-1.6,1.6-2.4,1.6H225c-0.2,0-0.3,0.1-0.3,0.3v0.7c0,0.3,0,0.5,0.3,0.5
		c0.5,0,1.3-0.1,3.9-0.1c3,0,4.4,0.1,4.9,0.1c0.3,0,0.3-0.1,0.3-0.4v-0.8c0-0.2,0-0.3-0.4-0.3h-1.3c-1.1,0-1.4-0.9-1.4-1.7
		c0-1.2,1.8-6.1,2-6.8C233,79.8,241,79.8,241,79.8z M233.6,78.4c0.3-0.9,3.4-9.4,3.6-9.8c0.1-0.3,0.2-0.5,0.4-0.5s0.3,0.2,0.4,0.8
		c0.2,0.9,2.4,8.5,2.7,9.5H233.6z"/>
	<path class="st3" d="M89.7,110.8c2.9,0,5-1.7,6.2-3.4c0.1-0.1,0.1-0.2,0-0.3l-0.4-0.3c-0.1-0.1-0.2,0-0.3,0.2
		c-0.8,1.2-2.5,2.2-4.9,2.2c-0.7,0-1.9-0.2-3.2-1.5c-1.5-1.6-1.9-4.1-1.9-5.4c0-3.1,1.3-5.9,4.3-5.9c1.6,0,2.7,0.7,3.6,1.6
		s1.4,2,1.7,2.8c0.1,0.2,0.2,0.3,0.3,0.2l0.5-0.1c0.1,0,0.1-0.1,0.1-0.3c-0.1-0.6-0.5-4.2-0.5-4.6c0-0.3-0.1-0.3-0.4-0.3
		s-0.3,0-0.4,0.1l-0.2,0.5c-0.1,0.1-0.2,0.2-0.4,0c-0.7-0.4-2.3-0.9-4.2-0.9c-2.6,0-4.3,1-5.5,2.3c-1.5,1.6-2.1,3.5-2.1,5.6
		c0,1.8,0.7,4.2,2.3,5.6C85.5,110,86.9,110.8,89.7,110.8z M105,96.4l2.7,0.1c0.6,0,1.2,0.3,1.6,0.6c0.5,0.3,2.4,2.2,2.5,2.3
		c0.1,0.1,0.2,0.1,0.3,0.1l0.3-0.2c0.1-0.1,0.1-0.1,0.1-0.2c-0.1-0.2-0.8-3.1-0.9-3.4c0-0.1-0.1-0.1-0.2-0.1s-0.5,0-0.8,0h-7.3
		c-1.9,0-2.6-0.1-3.1-0.1c-0.1,0-0.2,0.1-0.2,0.1v0.5c0,0.2,0,0.2,0.1,0.2h0.9c0.6,0,0.8,0.2,0.8,0.8c0,0.2,0.1,2.8,0.1,4.5v7
		c0,0.7-0.1,0.9-1.1,0.9h-0.6c-0.1,0-0.2,0.1-0.2,0.2v0.4c0,0.2,0,0.2,0.2,0.2s0.4,0,0.9,0c0.4,0,1,0,1.8,0c3.6,0,5.8,0,7.2,0
		c1.3,0,1.8,0,1.9,0c0.2,0,0.4-0.1,0.4-0.3l0.9-3.2c0-0.1,0-0.1-0.1-0.2l-0.4-0.2c-0.1,0-0.1,0-0.2,0.1c-0.4,0.5-1.6,1.8-2.1,2.2
		c-0.5,0.4-1.2,0.6-1.6,0.7c-0.4,0-1.3,0.1-1.7,0.1c-1.1,0-1.4-0.1-1.8-0.2c-0.3-0.1-0.5-0.5-0.5-1.6c0-0.4-0.1-2.4-0.1-3.5v-1.3
		c0.9,0,1.6,0,2.1,0.1c0.4,0.1,0.9,0.3,1.2,0.7c0.1,0.2,0.3,0.7,0.4,1.1c0,0.2,0.1,0.2,0.2,0.2l0.5-0.1c0.1,0,0.2,0,0.2-0.2
		c0-0.4-0.1-1.4-0.1-2.4c0-0.7,0-1.8,0.1-2.2c0-0.1-0.1-0.1-0.2-0.2l-0.6-0.1c-0.1,0-0.2,0.1-0.2,0.2c0,0.4-0.3,1-0.5,1.3
		c-0.3,0.4-0.6,0.6-1,0.7c-0.2,0.1-1.2,0.1-2.1,0.1L105,96.4z M121.7,102.1c0-1.4,0.1-4.6,0.1-4.9c0-0.6,0.1-0.8,0.7-0.8h1
		c0.2,0,0.2-0.1,0.2-0.2v-0.5c0-0.2,0-0.2-0.2-0.2s-1.1,0.1-3.5,0.1c-1.9,0-2.7-0.1-2.9-0.1c-0.1,0-0.2,0-0.2,0.1v0.5
		c0,0.1,0,0.2,0.2,0.2h0.8c0.5,0,0.6,0.2,0.6,0.8c0,0.3,0.1,2.5,0.1,3.9v1.2c0,1.3-0.1,6.5-0.1,6.9c0,0.2-0.1,0.5-0.9,0.5H117
		c-0.1,0-0.1,0-0.1,0.1v0.5c0,0.2,0,0.2,0.2,0.2c0.3,0,1-0.1,3.1-0.1c1.9,0,7.9,0,8.5,0.1c0.1-0.6,1-4,1-4.1s0-0.1,0-0.2l-0.4-0.2
		c-0.1-0.1-0.2,0-0.3,0.1c-0.3,0.8-1.7,3.3-2.9,3.4c-1.1,0.1-2.1,0.1-3,0.1h-1.2c-0.1-0.8-0.1-5.3-0.1-5.7L121.7,102.1
		C121.8,102.1,121.7,102.1,121.7,102.1z M141,104.7c0.3,0.7,1.1,3.4,1.3,4.2c0.1,0.5-0.1,0.8-0.6,0.8h-0.6c-0.1,0-0.1,0.1-0.1,0.2
		v0.4c0,0.2,0,0.3,0.2,0.3c0.4,0,1.1-0.1,2.9-0.1c2.7,0,3.1,0.1,3.5,0.1c0.2,0,0.2-0.1,0.2-0.3v-0.4c0-0.1,0-0.2-0.1-0.2H147
		c-0.3,0-0.9-0.3-1.2-0.9s-1.6-4.4-2.1-6.1c-0.4-1.3-2-6-2.4-7.3c-0.1-0.2-0.1-0.4-0.2-0.4s-0.2,0.1-0.3,0.2
		c-0.3,0.4-1.7,0.9-2.3,1.1c-0.2,0-0.2,0.1-0.2,0.2s0.1,0.2,0.1,0.3c0.2,0.2,0.1,0.5,0,0.7c-0.2,0.6-1.9,5-2,5.5
		c-0.7,1.8-2.2,5.5-2.5,5.9c-0.4,0.6-0.9,0.9-1.4,0.9H132c-0.1,0-0.2,0.1-0.2,0.2v0.4c0,0.2,0,0.3,0.2,0.3c0.3,0,0.7-0.1,2.3-0.1
		c1.7,0,2.5,0.1,2.8,0.1c0.2,0,0.2-0.1,0.2-0.2V110c0-0.1,0-0.2-0.2-0.2h-0.7c-0.6,0-0.8-0.5-0.8-1c0-0.7,1-3.5,1.2-4L141,104.7
		L141,104.7z M136.8,103.9c0.2-0.5,2-5.4,2.1-5.7c0.1-0.2,0.1-0.3,0.2-0.3c0.1,0,0.2,0.1,0.2,0.5c0.1,0.5,1.4,4.9,1.5,5.5H136.8z
		 M155.9,102.1c0-1.4,0.1-4.6,0.1-4.9c0-0.6,0.1-0.8,0.7-0.8h1c0.2,0,0.2-0.1,0.2-0.2v-0.5c0-0.2,0-0.2-0.2-0.2s-1.1,0.1-3.5,0.1
		c-1.9,0-2.6-0.1-2.9-0.1c-0.1,0-0.1,0-0.1,0.1v0.5c0,0.1,0,0.2,0.1,0.2h0.8c0.5,0,0.6,0.2,0.6,0.8c0,0.3,0.1,2.5,0.1,3.9v1.2
		c0,1.3-0.1,6.5-0.1,6.9c0,0.2-0.1,0.5-0.9,0.5h-0.6c-0.1,0-0.2,0-0.2,0.1v0.5c0,0.2,0,0.2,0.2,0.2c0.3,0,1-0.1,3.1-0.1
		c1.9,0,7.9,0,8.5,0.1c0.1-0.6,0.9-4,1-4.1c0-0.1,0-0.1,0-0.2l-0.4-0.2c-0.1-0.1-0.2,0-0.2,0.1c-0.3,0.8-1.7,3.3-2.9,3.4
		c-1.1,0.1-2.1,0.1-3,0.1h-1.2c-0.1-0.8-0.1-5.3-0.1-5.7v-1.7C156,102.1,155.9,102.1,155.9,102.1z M173.5,103.8c0,1.7,0,4.5-0.1,4.9
		c-0.1,0.6-0.2,0.9-0.8,0.9h-0.7c-0.2,0-0.2,0-0.2,0.2v0.5c0,0.2,0,0.2,0.2,0.2c0.1,0,0.4,0,0.8,0c0.5,0,1.2,0,2.2,0
		c0.4,0,1.1,0,1.7,0.1c0.6,0,1.1,0.1,1.3,0.1c2.6,0,4-0.3,4.9-0.8c1-0.5,1.6-2,1.6-3.2c0-2.2-1.4-3.5-3.9-4.1l0,0
		c2.2-0.7,3-2.1,3-3.4c0-1.2-0.4-2.2-1.6-2.8c-0.7-0.4-2.1-0.6-3.6-0.6c-1.4,0-2.7,0.1-3.3,0.1c-2,0-3-0.1-3.3-0.1
		c-0.1,0-0.2,0.1-0.2,0.2v0.5c0,0.2,0,0.2,0.2,0.2h0.7c0.7,0,1,0.1,1.1,1.3c0,0.3,0.1,2.9,0.1,3.6L173.5,103.8L173.5,103.8z
		 M176.6,100.6c0-1.7,0-3.5,0.1-4c0-0.3,0.5-0.3,0.9-0.3c0.2,0,1.2,0.2,2,0.7c0.6,0.5,0.8,1.3,0.8,2.1c0,0.9-0.3,1.9-1,2.5
		c-0.6,0.5-1.9,0.7-2.8,0.6V100.6z M176.6,103c0.5,0,1.5-0.1,2.6,0.3s1.9,1.5,1.9,3.2c0,2.6-1.4,3.3-2.9,3.3c-1.1,0-1.6-0.8-1.6-2.8
		V103z M196.6,104.7c0.3,0.7,1.1,3.4,1.3,4.2c0.1,0.5-0.1,0.8-0.6,0.8h-0.6c-0.1,0-0.1,0.1-0.1,0.2v0.4c0,0.2,0,0.3,0.2,0.3
		c0.4,0,1.1-0.1,2.9-0.1c2.7,0,3.1,0.1,3.5,0.1c0.2,0,0.2-0.1,0.2-0.3v-0.4c0-0.1,0-0.2-0.2-0.2h-0.7c-0.3,0-0.8-0.3-1.2-0.9
		c-0.3-0.6-1.7-4.4-2.1-6.1c-0.4-1.3-2-6-2.4-7.3c-0.1-0.2-0.1-0.4-0.2-0.4c-0.1,0-0.2,0.1-0.3,0.2c-0.3,0.4-1.7,0.9-2.3,1.1
		c-0.2,0-0.2,0.1-0.2,0.2s0.1,0.2,0.2,0.3c0.1,0.2,0,0.5,0,0.7c-0.2,0.6-1.9,5-2,5.5c-0.7,1.8-2.2,5.5-2.5,5.9
		c-0.4,0.6-0.9,0.9-1.4,0.9h-0.6c-0.1,0-0.1,0.1-0.1,0.2v0.4c0,0.2,0,0.3,0.1,0.3c0.3,0,0.8-0.1,2.3-0.1c1.7,0,2.6,0.1,2.8,0.1
		s0.2-0.1,0.2-0.2V110c0-0.1,0-0.2-0.2-0.2h-0.7c-0.6,0-0.8-0.5-0.8-1c0-0.7,1-3.5,1.2-4L196.6,104.7L196.6,104.7z M192.4,103.9
		c0.2-0.5,1.9-5.4,2.1-5.7c0.1-0.2,0.1-0.3,0.2-0.3c0.1,0,0.2,0.1,0.2,0.5c0.2,0.5,1.4,4.9,1.6,5.5H192.4z M212.9,104.3
		c0.8-1.6,4.1-6.9,4.4-7.3c0.3-0.4,0.9-0.5,1.2-0.5h0.4c0.1,0,0.2-0.1,0.2-0.2v-0.5c0-0.1,0-0.2-0.2-0.2s-0.7,0.1-2.1,0.1
		c-1.5,0-2.4-0.1-2.6-0.1c-0.1,0-0.1,0-0.1,0.1v0.5c0,0.1,0,0.2,0.1,0.2h0.6c0.4,0,0.8,0.4,0.8,0.7c0,0.6-2.5,5-3.1,6.2
		c-0.6-1.2-3-6-3-6.4c0-0.3,0.2-0.6,0.5-0.6h0.5c0.1,0,0.2-0.1,0.2-0.2v-0.5c0-0.1,0-0.1-0.2-0.1s-0.9,0.1-3.1,0.1
		c-1.9,0-2.8-0.1-3-0.1c-0.1,0-0.1,0-0.1,0.1v0.6c0,0.1,0,0.1,0.1,0.1h0.3c0.3,0,0.8,0.2,1.1,0.5c0.5,0.7,3.9,6.8,4.2,7.4v0.9
		c0,1.9-0.1,3.6-0.1,3.9s-0.2,0.5-0.7,0.5h-0.7c-0.1,0-0.2,0.1-0.2,0.1v0.5c0,0.2,0,0.2,0.1,0.2c0.2,0,0.9-0.1,3-0.1
		c2,0,2.8,0.1,3,0.1c0.1,0,0.1-0.1,0.1-0.2v-0.5c0-0.1,0-0.1-0.1-0.1h-0.6c-0.3,0-0.7-0.1-0.7-0.7c0-0.2-0.1-1.5-0.1-2.4
		L212.9,104.3L212.9,104.3z M228,104.7c0.3,0.7,1.1,3.4,1.3,4.2c0.1,0.5-0.1,0.8-0.6,0.8H228c-0.1,0-0.1,0.1-0.1,0.2v0.4
		c0,0.2,0,0.3,0.2,0.3c0.4,0,1.1-0.1,2.9-0.1c2.7,0,3.1,0.1,3.5,0.1c0.2,0,0.2-0.1,0.2-0.3v-0.4c0-0.1,0-0.2-0.1-0.2h-0.7
		c-0.3,0-0.9-0.3-1.2-0.9s-1.6-4.4-2.1-6.1c-0.4-1.3-2-6-2.4-7.3c-0.1-0.2-0.1-0.4-0.2-0.4c-0.1,0-0.2,0.1-0.3,0.2
		c-0.3,0.4-1.7,0.9-2.3,1.1c-0.2,0-0.2,0.1-0.2,0.2s0.1,0.2,0.1,0.3c0.2,0.2,0.1,0.5,0,0.7c-0.2,0.6-1.9,5-2,5.5
		c-0.7,1.8-2.2,5.5-2.5,5.9c-0.4,0.6-0.9,0.9-1.4,0.9h-0.5c-0.1,0-0.2,0.1-0.2,0.2v0.4c0,0.2,0,0.3,0.2,0.3c0.3,0,0.7-0.1,2.3-0.1
		c1.7,0,2.5,0.1,2.8,0.1c0.2,0,0.2-0.1,0.2-0.2V110c0-0.1,0-0.2-0.2-0.2h-1c-0.6,0-0.8-0.5-0.8-1c0-0.7,1-3.5,1.2-4L228,104.7
		L228,104.7z M223.7,103.9c0.2-0.5,2-5.4,2.1-5.7c0.1-0.2,0.1-0.3,0.2-0.3c0.1,0,0.2,0.1,0.2,0.5c0.1,0.5,1.4,4.9,1.5,5.5H223.7z
		 M239.8,103c0,2,0,3.9-0.1,6c0,0.5-0.4,0.7-0.8,0.7h-0.6c-0.1,0-0.1,0.1-0.1,0.2v0.5c0,0.2,0,0.2,0.2,0.2s0.7-0.1,2.9-0.1
		s2.7,0.1,2.7,0.1c0.3,0,0.3,0,0.3-0.2v-0.5c0-0.1,0-0.2-0.2-0.2h-0.8c-0.3,0-0.5-0.4-0.5-0.8c0-0.3-0.1-2.6-0.1-3.8V104h0.7
		c1,0,1.8,1.5,2.5,3c0.4,0.7,1.7,3.1,2.3,3.6c0.6,0,1.4-0.1,2-0.1c1.6,0,2.2,0.1,2.3,0.1s0.2-0.1,0.2-0.2v-0.5c0-0.1,0-0.2-0.2-0.2
		c-0.5,0-1.3-0.2-1.5-0.4c-0.4-0.5-1.5-2.1-1.7-2.3c-0.2-0.2-1.3-2.1-1.6-2.4c-0.4-0.5-0.7-0.9-1.4-1.1v-0.2c1.8-0.2,3.8-1.4,3.8-4
		c0-0.8-0.4-1.6-1.2-2.3c-0.9-0.8-2.1-1.4-3.7-1.4c-0.9,0-2.7,0.1-3.9,0.1c-2.3,0-2.9-0.1-3.1-0.1c-0.1,0-0.1,0-0.1,0.1v0.6
		c0,0.1,0,0.1,0.1,0.1h0.8c0.3,0,0.6,0.4,0.6,1.1c0,0.6,0,1.9,0,3.4v2.1C239.6,103,239.8,103,239.8,103z M242.8,97.1
		c0-0.3,0.1-0.5,0.2-0.6c0.2-0.1,0.4-0.2,0.8-0.2c0.6,0,1.6,0.3,2.3,0.9c0.5,0.4,0.8,1.4,0.8,2.3c0,1-0.6,3.6-3.4,3.6
		c-0.2,0-0.4,0-0.8,0L242.8,97.1z"/>
	<path class="st3" d="M83.1,122.8c0,1.8,0.1,2.7,0.3,3.3c0.3,0.9,0.9,1.5,1.6,1.8c0.6,0.2,1.4,0.3,2.1,0.3c0.9,0,1.8-0.3,2.4-0.9
		c0.7-0.6,1.1-1.5,1.2-2.6c0-0.5,0.1-2.9,0.1-3.1s0-2.1,0-2.3c0-0.1,0.1-0.5,0.6-0.5h0.4c0.1,0,0.1-0.1,0.1-0.1v-0.3
		c0-0.1,0-0.1-0.1-0.1s-0.6,0-1.3,0c-0.9,0-1.5,0-1.7,0c-0.1,0-0.1,0-0.1,0.1v0.4c0,0.1,0,0.1,0.1,0.1h0.4c0.2,0,0.5,0.3,0.5,0.6
		c0.1,0.3,0.2,1.8,0.2,3v2.1c0,1-0.3,1.7-0.9,2.2c-0.4,0.3-1.1,0.6-1.6,0.6c-0.6,0-1.3-0.2-1.7-0.8c-0.3-0.4-0.4-1-0.4-1.6
		c0-0.4-0.1-2.2-0.1-2.9v-0.9c0-0.7,0-1.6,0-1.8c0-0.3,0.3-0.5,0.7-0.5h0.5c0.1,0,0.1,0,0.1-0.1v-0.4c0-0.1,0-0.1-0.1-0.1
		s-0.8,0-2,0c-1.4,0-2.1,0-2.2,0c-0.1,0-0.1,0-0.1,0.1v0.3c0,0.1,0,0.1,0.1,0.1h0.6c0.3,0,0.4,0.2,0.4,0.7L83.1,122.8L83.1,122.8z
		 M86.1,117.3c0.4,0,0.8-0.4,0.8-0.8c0-0.5-0.4-0.8-0.8-0.8c-0.7,0-0.9,0.5-0.9,0.8C85.2,117.2,85.8,117.3,86.1,117.3z M89.2,117.3
		c0.5,0,0.8-0.4,0.8-0.8c0-0.5-0.4-0.8-0.8-0.8c-0.7,0-0.9,0.5-0.9,0.8C88.3,117.2,88.8,117.3,89.2,117.3z M107.2,125.3L107.2,125.3
		c-0.2-0.2-2.2-2.7-2.4-2.9c-0.4-0.5-3.1-3.8-3.2-3.9s-0.2-0.2-0.4-0.2s-0.6,0-1.1,0c-0.7,0-1.1,0-1.4,0s-0.4,0-0.4,0
		s-0.1,0-0.1,0.1v0.4c0,0,0,0.1,0.1,0.1h0.3c0.7,0,1.2,0.8,1.2,1.6v1.2c0,2-0.1,4.2-0.1,4.5c-0.1,0.9-0.3,1.4-0.6,1.4h-0.5
		c-0.1,0-0.1,0-0.1,0.1v0.4c0,0.1,0,0.1,0.1,0.1s1.1,0,1.5,0c0.6,0,1.5,0,1.6,0s0.1,0,0.1-0.1v-0.3c0-0.1,0-0.1-0.1-0.1h-0.3
		c-0.6,0-0.8-0.4-0.8-1.2c0-0.5-0.1-2.2-0.1-3.3v-2.8h0.1c0.3,0.4,2.2,2.8,2.4,3.1c0.3,0.3,1.3,1.6,2.3,2.8c0.8,1,1.5,1.7,1.7,1.9
		c0.1,0.1,0.3,0.2,0.5,0.2s0.2-0.2,0.2-0.4v-2.3c0-1.8,0.2-4.9,0.3-5.8c0-0.5,0.2-0.7,0.4-0.7h0.4c0.1,0,0.1-0.1,0.1-0.1v-0.3
		c0-0.1,0-0.1-0.1-0.1c-0.2,0-0.5,0-1.3,0c-1,0-1.4,0-1.6,0c-0.1,0-0.1,0-0.1,0.1v0.3c0,0.1,0,0.1,0.1,0.1h0.4
		c0.3,0,0.6,0.2,0.7,0.5c0,0.2,0.1,1.5,0.1,2.1c0,0.7,0,1.4,0,2.6v0.9L107.2,125.3L107.2,125.3z M117.4,123.3c0,0.7-0.1,3.7-0.1,3.9
		c-0.1,0.3-0.3,0.4-0.6,0.4h-0.4c-0.1,0-0.1,0-0.1,0.1v0.4c0,0.1,0,0.1,0.1,0.1c0.2,0,0.7,0,2.2,0c1.3,0,1.9,0,2,0s0.1,0,0.1-0.1
		v-0.4c0-0.1,0-0.1-0.1-0.1H120c-0.3,0-0.5-0.1-0.5-0.5c0-0.1,0-3.3,0-3.4v-1.1c0-0.2,0-3.2,0-3.3c0-0.2,0.2-0.4,0.6-0.4h0.4
		c0.1,0,0.1,0,0.1-0.1v-0.3c0-0.1,0-0.1-0.1-0.1c-0.2,0-0.6,0-2,0c-1.3,0-2,0-2.2,0c-0.1,0-0.1,0-0.1,0.1v0.4c0,0.1,0,0.1,0.1,0.1
		h0.7c0.3,0,0.4,0.1,0.5,0.5c0,0.2,0.1,2.7,0.1,3v0.8H117.4L117.4,123.3z M118.5,117.3c0.5,0,0.9-0.4,0.9-0.9c0-0.6-0.4-0.9-0.9-0.9
		c-0.8,0-1,0.6-1,0.9C117.5,117.2,118.1,117.3,118.5,117.3z M134,118.8c0,0.1,0,0.1,0.1,0.1h0.4c0.4,0,0.6,0.3,0.6,0.5
		s0,0.4-0.1,0.7c-0.2,0.6-0.7,1.8-0.9,2.4c-0.2,0.5-0.8,2.2-1.2,3.1h-0.1c-0.2-0.5-0.9-2.5-1.1-3c-0.3-0.8-0.8-2.4-0.9-2.9
		c0-0.2,0-0.3,0-0.5s0.3-0.3,0.6-0.3h0.6c0.1,0,0.1-0.1,0.1-0.1v-0.3c0-0.1,0-0.1-0.1-0.1s-0.7,0-2.2,0c-1.7,0-2.1,0-2.2,0
		s-0.1,0-0.1,0.1v0.3c0,0.1,0,0.1,0.1,0.1h0.3c0.3,0,0.5,0.1,0.6,0.5c0.2,0.4,0.8,2.4,1.2,3.3s1.6,4.3,2.1,5.3
		c0.1,0.2,0.1,0.3,0.3,0.3s0.2-0.1,0.3-0.2c0.2-0.4,1.8-4.1,2.1-4.8c0.5-1.1,1.1-2.8,1.7-3.7c0.4-0.6,0.8-0.7,1-0.7h0.3
		c0.1,0,0.1,0,0.1-0.1v-0.3c0-0.1,0-0.1-0.1-0.1c-0.1,0-0.5,0-1.7,0c-0.9,0-1.5,0-1.7,0c-0.1,0-0.1,0-0.1,0.1L134,118.8L134,118.8z
		 M147,118.9l1.8,0.1c0.4,0,0.8,0.2,1.1,0.4s1.5,1.4,1.6,1.5s0.1,0.1,0.2,0.1l0.2-0.1c0.1-0.1,0.1-0.1,0-0.1c-0.1-0.1-0.5-2-0.6-2.2
		c0-0.1,0-0.1-0.1-0.1s-0.3,0-0.6,0h-4.8c-1.2,0-1.7,0-2,0c-0.1,0-0.1,0.1-0.1,0.1v0.3c0,0.1,0,0.1,0.1,0.1h0.5
		c0.4,0,0.5,0.1,0.6,0.5c0,0.1,0,1.8,0,3v4.6c0,0.5-0.1,0.6-0.7,0.6h-0.4c-0.1,0-0.1,0-0.1,0.1v0.3c0,0.1,0,0.2,0.1,0.2s0.3,0,0.6,0
		c0.3,0,0.7,0,1.2,0c2.4,0,3.8,0,4.7,0s1.2,0,1.2,0c0.2,0,0.3-0.1,0.3-0.2l0.6-2.1c0,0,0-0.1-0.1-0.1l-0.2-0.1c-0.1,0-0.1,0-0.1,0
		c-0.3,0.3-1.1,1.2-1.4,1.5c-0.3,0.3-0.8,0.4-1,0.5c-0.3,0-0.9,0-1.1,0c-0.7,0-0.9,0-1.2-0.1c-0.2-0.1-0.3-0.3-0.3-1.1
		c0-0.2-0.1-1.6-0.1-2.3v-0.8c0.6,0,1,0,1.4,0.1c0.3,0.1,0.6,0.2,0.7,0.5c0.1,0.2,0.2,0.5,0.3,0.7c0,0.1,0.1,0.1,0.1,0.1l0.3-0.1
		c0.1,0,0.1,0,0.1-0.1c0-0.3-0.1-0.9-0.1-1.6c0-0.5,0-1.2,0.1-1.4c0-0.1-0.1-0.1-0.1-0.1h-0.4c-0.1,0-0.1,0-0.1,0.1
		c0,0.3-0.2,0.6-0.3,0.8c-0.2,0.2-0.4,0.4-0.6,0.4c-0.2,0-0.8,0.1-1.4,0.1L147,118.9z M160.5,123.2c0,1.3,0,2.6,0,3.9
		c0,0.3-0.2,0.4-0.5,0.4h-0.4c-0.1,0-0.1,0-0.1,0.1v0.3c0,0.1,0,0.1,0.1,0.1c0.2,0,0.5,0,1.9,0s1.8,0,1.8,0c0.2,0,0.2,0,0.2-0.1
		v-0.3c0-0.1,0-0.1-0.1-0.1h-0.6c-0.2,0-0.3-0.3-0.3-0.5s-0.1-1.7-0.1-2.5v-0.7h0.5c0.7,0,1.2,1,1.7,1.9c0.2,0.5,1.1,2,1.5,2.4
		c0.4,0,0.9,0,1.3,0c1.1,0,1.4,0,1.5,0s0.1,0,0.1-0.1v-0.3c0-0.1,0-0.1-0.1-0.1c-0.3,0-0.8-0.1-1-0.3c-0.3-0.3-1-1.4-1.1-1.5
		c-0.1-0.2-0.9-1.4-1.1-1.6c-0.3-0.3-0.5-0.6-0.9-0.7v-0.1c1.2-0.1,2.5-0.9,2.5-2.6c0-0.5-0.3-1.1-0.8-1.5c-0.6-0.5-1.4-0.9-2.4-0.9
		c-0.6,0-1.8,0-2.5,0c-1.5,0-1.9,0-2,0s-0.1,0-0.1,0.1v0.4c0,0.1,0,0.1,0.1,0.1h0.6c0.2,0,0.4,0.2,0.4,0.7c0,0.4,0,1.2,0,2.3
		L160.5,123.2L160.5,123.2z M162.5,119.3c0-0.2,0.1-0.3,0.2-0.4c0.1-0.1,0.3-0.1,0.5-0.1c0.4,0,1,0.2,1.5,0.6
		c0.3,0.3,0.5,0.9,0.5,1.5c0,0.7-0.4,2.4-2.2,2.4c-0.1,0-0.3,0-0.6,0L162.5,119.3z M176.1,125c-0.1,0-0.1,0-0.1,0.1l-0.2,2.6
		c0,0.2,0,0.2,0.2,0.2c0.1,0,0.2,0,0.3-0.2c0.1-0.1,0.1-0.2,0.2-0.2c0.1,0,0.2,0,0.3,0.2c0.6,0.4,1.2,0.6,2.4,0.6c1.8,0,3-1.4,3-3
		c0-1-0.2-1.5-0.8-2s-1.1-0.9-1.8-1.1s-1.4-0.5-1.8-0.9c-0.3-0.3-0.3-0.8-0.3-1.3c0-0.4,0.4-1.3,1.4-1.3c0.6,0,1,0.2,1.4,0.6
		c0.5,0.5,0.7,1,0.9,1.4c0,0.1,0.1,0.1,0.2,0.1l0.3-0.1c0,0,0.1,0,0.1-0.1l-0.2-2.3c0-0.1-0.1-0.2-0.1-0.2c-0.1,0-0.2,0-0.2,0.1
		l-0.2,0.2c-0.1,0.1-0.2,0.1-0.3,0.1c-0.3-0.1-0.8-0.3-1.8-0.3c-0.8,0-1.4,0.2-2,0.7c-0.8,0.6-1,1.2-1,2s0.2,1.5,0.7,1.9
		c0.7,0.6,1.6,1,2,1.2c1.8,0.7,2,1,2,2.1s-1.1,1.5-1.7,1.5s-1.3-0.3-1.7-0.9c-0.3-0.5-0.5-1.1-0.6-1.5c0-0.1,0-0.1-0.1-0.1
		L176.1,125z M191,123.3c0,0.7,0,3.7-0.1,3.9c-0.1,0.3-0.3,0.4-0.6,0.4h-0.4c-0.1,0-0.1,0-0.1,0.1v0.4c0,0.1,0.1,0.1,0.1,0.1
		c0.2,0,0.7,0,2.2,0c1.3,0,1.8,0,2,0c0.1,0,0.1,0,0.1-0.1v-0.4c0-0.1-0.1-0.1-0.1-0.1h-0.6c-0.3,0-0.5-0.1-0.5-0.5
		c0-0.1-0.1-3.3-0.1-3.4v-1.1c0-0.2,0.1-3.2,0.1-3.3c0-0.2,0.2-0.4,0.6-0.4h0.4c0.1,0,0.1,0,0.1-0.1v-0.3c0-0.1,0-0.1-0.1-0.1
		c-0.2,0-0.6,0-2,0c-1.3,0-2,0-2.2,0c-0.1,0-0.1,0-0.1,0.1v0.4c0,0.1,0.1,0.1,0.1,0.1h0.7c0.3,0,0.4,0.1,0.4,0.5
		c0,0.2,0.1,2.7,0.1,3L191,123.3L191,123.3z M192.1,117.3c0.5,0,0.8-0.4,0.8-0.9c0-0.6-0.4-0.9-0.8-0.9c-0.8,0-1,0.6-1,0.9
		C191.1,117.2,191.7,117.3,192.1,117.3z M205.1,122.4c0,0.3,0,4.5,0,4.8c0,0.2-0.2,0.4-0.5,0.4h-0.7c-0.1,0-0.1,0-0.1,0.1v0.3
		c0,0.1,0,0.2,0.1,0.2c0.2,0,0.8,0,2.2,0c1.5,0,2,0,2.1,0s0.1,0,0.1-0.1v-0.3c0-0.1,0-0.1-0.1-0.1h-0.6c-0.3,0-0.4-0.2-0.5-0.6
		c0-0.2,0-4,0-4.2V119h0.5c0.3,0,1.5,0.1,1.9,0.3c0.3,0.3,0.9,1,1.2,1.5c0.1,0.1,0.1,0.1,0.1,0.1l0.3-0.1c0.1,0,0.1-0.1,0.1-0.1
		c-0.1-0.7-0.4-2.4-0.4-2.7c0-0.2-0.1-0.2-0.2-0.2c-0.1,0-0.2,0.1-0.3,0.2c-0.2,0.2-0.7,0.3-1,0.3c-0.6,0-1.2,0.1-2.7,0.1h-0.8
		c-1.4,0-2,0-2.7-0.1c-0.5,0-0.8-0.1-0.9-0.3c-0.1-0.2-0.2-0.2-0.3-0.2s-0.2,0.1-0.2,0.2c-0.1,0.3-0.5,2.1-0.7,2.7
		c0,0.1,0,0.1,0.1,0.1l0.3,0.1c0.1,0,0.1,0,0.1-0.1c0.3-0.5,0.9-1.3,1.2-1.5c0.6-0.2,1.4-0.2,1.8-0.2h0.5L205.1,122.4L205.1,122.4z
		 M221.5,118.9l1.8,0.1c0.4,0,0.8,0.2,1,0.4c0.3,0.2,1.5,1.4,1.6,1.5s0.1,0.1,0.2,0.1l0.2-0.1c0.1-0.1,0.1-0.1,0.1-0.1
		c-0.1-0.1-0.5-2-0.6-2.2c0-0.1,0-0.1-0.1-0.1s-0.3,0-0.6,0h-4.8c-1.2,0-1.7,0-2,0c-0.1,0-0.1,0.1-0.1,0.1v0.3c0,0.1,0,0.1,0.1,0.1
		h0.5c0.4,0,0.5,0.1,0.6,0.5c0,0.1,0.1,1.8,0.1,3v4.6c0,0.5-0.1,0.6-0.7,0.6h-0.4c-0.1,0-0.1,0-0.1,0.1v0.3c0,0.1,0,0.2,0.1,0.2
		s0.3,0,0.6,0s0.7,0,1.2,0c2.4,0,3.8,0,4.7,0s1.2,0,1.2,0c0.2,0,0.3-0.1,0.3-0.2l0.6-2.1c0,0,0-0.1-0.1-0.1l-0.2-0.1
		c-0.1,0-0.1,0-0.1,0c-0.3,0.3-1.1,1.2-1.4,1.5c-0.3,0.3-0.8,0.4-1,0.5c-0.3,0-0.9,0-1.1,0c-0.7,0-0.9,0-1.1-0.1
		c-0.2-0.1-0.3-0.3-0.3-1.1c0-0.2-0.1-1.6-0.1-2.3v-0.8c0.6,0,1,0,1.4,0.1c0.3,0.1,0.6,0.2,0.7,0.5c0.1,0.2,0.2,0.5,0.3,0.7
		c0,0.1,0.1,0.1,0.1,0.1l0.3-0.1c0.1,0,0.1,0,0.1-0.1c0-0.3-0.1-0.9-0.1-1.6c0-0.5,0-1.2,0.1-1.4c0-0.1-0.1-0.1-0.1-0.1H224
		c-0.1,0-0.1,0-0.1,0.1c0,0.3-0.2,0.6-0.3,0.8c-0.2,0.2-0.4,0.4-0.6,0.4c-0.2,0-0.8,0.1-1.4,0.1L221.5,118.9z M234.4,125
		c-0.1,0-0.1,0-0.1,0.1l-0.2,2.6c0,0.2,0,0.2,0.2,0.2c0.1,0,0.2,0,0.2-0.2c0.1-0.1,0.1-0.2,0.2-0.2c0.1,0,0.2,0,0.3,0.2
		c0.6,0.4,1.2,0.6,2.5,0.6c1.8,0,3-1.4,3-3c0-1-0.2-1.5-0.8-2s-1.1-0.9-1.8-1.1s-1.4-0.5-1.8-0.9c-0.3-0.3-0.3-0.8-0.3-1.3
		c0-0.4,0.4-1.3,1.4-1.3c0.6,0,1,0.2,1.4,0.6c0.5,0.5,0.7,1,0.9,1.4c0,0.1,0.1,0.1,0.2,0.1l0.3-0.1c0.1,0,0.1,0,0.1-0.1l-0.2-2.3
		c0-0.1-0.1-0.2-0.1-0.2c-0.1,0-0.2,0-0.2,0.1l-0.2,0.2c-0.1,0.1-0.2,0.1-0.3,0.1c-0.3-0.1-0.8-0.3-1.8-0.3c-0.8,0-1.3,0.2-2,0.7
		c-0.8,0.6-1,1.2-1,2s0.2,1.5,0.7,1.9c0.7,0.6,1.6,1,2,1.2c1.8,0.7,2,1,2,2.1s-1.1,1.5-1.7,1.5s-1.3-0.3-1.7-0.9
		c-0.3-0.5-0.5-1.1-0.6-1.5c0-0.1,0-0.1-0.1-0.1L234.4,125z M249.3,123.3c0,0.7,0,3.7-0.1,3.9c-0.1,0.3-0.3,0.4-0.6,0.4h-0.4
		c-0.1,0-0.1,0-0.1,0.1v0.4c0,0.1,0,0.1,0.1,0.1c0.2,0,0.7,0,2.2,0c1.3,0,1.8,0,2,0c0.1,0,0.1,0,0.1-0.1v-0.4c0-0.1-0.1-0.1-0.1-0.1
		h-0.6c-0.3,0-0.5-0.1-0.5-0.5c0-0.1-0.1-3.3-0.1-3.4v-1.1c0-0.2,0.1-3.2,0.1-3.3c0-0.2,0.2-0.4,0.5-0.4h0.4c0.1,0,0.1,0,0.1-0.1
		v-0.3c0-0.1,0-0.1-0.1-0.1c-0.2,0-0.6,0-2,0c-1.3,0-2,0-2.2,0c-0.1,0-0.1,0-0.1,0.1v0.4c0,0.1,0.1,0.1,0.1,0.1h0.7
		c0.3,0,0.4,0.1,0.4,0.5c0,0.2,0.1,2.7,0.1,3v0.8H249.3L249.3,123.3z M250.4,117.3c0.5,0,0.8-0.4,0.8-0.9c0-0.6-0.4-0.9-0.8-0.9
		c-0.8,0-1,0.6-1,0.9C249.4,117.2,250,117.3,250.4,117.3z"/>
	<g>
		<path id="bilim_x0020_ve_x0020_insan.cdr" class="st1" d="M355.5,116.3c18.1-12.7,55.2,2.8,49.8-29.3c-1,23.1-30.8,14.1-50.4,28.1
			c-0.2,0.1-0.4,0.2-0.6,0.2c-0.3,0-0.4-0.2-0.4-0.6c0-0.3,0.1-0.8,0.4-1.5s0.6-1.8,1.2-3.1c0.4-1,0.7-1.9,1-2.7
			c0.3-0.8,0.5-1.4,0.7-1.9c0.2-0.6,0.3-1,0.4-1.4s0.1-0.7,0.1-1c0-0.6-0.2-1.1-0.6-1.5s-1-0.7-1.7-0.7c-1,0-1.9,0.3-2.8,0.8
			c-0.9,0.6-1.7,1.2-2.5,1.9c-0.8,0.8-1.4,1.5-2,2.2c-0.6,0.8-1,1.3-1.3,1.8l-0.3-0.2c0.2-0.4,0.4-0.9,0.6-1.4s0.4-1,0.6-1.5
			s0.3-1,0.4-1.4s0.2-0.8,0.2-1c0-0.3-0.1-0.6-0.3-0.9c-0.2-0.3-0.6-0.4-1.2-0.4c-0.9,0-1.7,0.1-2.5,0.4s-1.4,0.7-2.1,1.1
			c-0.6,0.4-1.1,0.8-1.5,1.2c-0.4,0.4-0.6,0.7-0.8,0.9c-0.2,0.2-0.1,0.3,0.1,0.4l0.4,0.4c0.2,0.1,0.3,0.1,0.4-0.1
			c0.1-0.1,0.4-0.4,0.6-0.6c0.3-0.3,0.5-0.4,0.8-0.7c0.3-0.2,0.5-0.4,0.8-0.6c0.3-0.1,0.5-0.3,0.7-0.3c0.4,0,0.6,0.2,0.6,0.6
			c0,0.1-0.1,0.4-0.2,0.7c-0.1,0.4-0.3,0.8-0.4,1.3c-0.2,0.5-0.4,1-0.6,1.7c-0.2,0.6-0.4,1.2-0.6,1.9l-2.7,7.3
			c-0.1,0.1-0.1,0.3,0,0.4s0.1,0.1,0.3,0.1h2.5c0.2,0,0.3,0,0.4-0.1s0.1-0.1,0.1-0.2l1.3-3.7c0.3-0.8,0.6-1.5,1-2.1s0.8-1.3,1.2-1.9
			c0.4-0.6,0.9-1.3,1.5-2.1c0.6-0.7,1.2-1.3,1.8-1.9c0.6-0.6,1.2-1,1.7-1.4s1-0.5,1.2-0.5c0.6,0,0.9,0.3,0.9,1
			c0,0.1-0.1,0.4-0.2,0.8s-0.3,0.8-0.4,1.3c-0.2,0.5-0.4,1-0.6,1.6s-0.4,1-0.5,1.5c-0.6,1.7-1.2,3.2-1.7,4.5
			c-0.4,1.2-0.7,2.1-0.7,2.4s0.1,0.6,0.3,0.9c0.2,0.3,0.6,0.3,1,0.3C352.7,117.7,354.3,117.1,355.5,116.3z M286.7,95.2
			c-0.2,0-0.4,0-0.6-0.1s-0.4-0.1-0.6-0.3c-0.2-0.1-0.3-0.3-0.4-0.5s-0.2-0.4-0.2-0.8c0-0.1,0-0.3,0.1-0.5s0.1-0.4,0.3-0.5
			c0.1-0.2,0.3-0.3,0.5-0.4c0.3-0.1,0.5-0.2,0.8-0.2c0.4,0,0.8,0.1,1.2,0.4c0.3,0.3,0.4,0.7,0.4,1.2s-0.1,0.9-0.4,1.2
			C287.5,95.1,287.1,95.2,286.7,95.2z M326.2,115c0.4,0,0.9-0.3,1.5-0.9s1.3-1.3,2-2.2c0.6-0.8,1.3-1.6,1.9-2.4s0.9-1.4,1.1-1.7
			c0.3-0.6,0.5-1.2,0.7-1.7s0.3-1.2,0.3-1.9c0-0.3-0.2-0.7-0.5-1.1s-0.8-0.6-1.3-0.6s-1.1,0.2-1.6,0.6c-0.6,0.4-1.1,1-1.6,1.8
			c-0.6,0.8-1,1.6-1.5,2.4c-0.4,0.8-0.8,1.6-1,2.4c-0.3,0.8-0.5,1.5-0.6,2.2s-0.2,1.3-0.2,1.9C325.3,114.6,325.6,115,326.2,115z
			 M338.6,100.8c0.3,0,0.3,0.1,0.3,0.4c-0.2,0.4-0.4,1-0.7,1.8c-0.3,0.8-0.6,1.5-0.9,2.3s-0.6,1.5-0.8,2.2c-0.3,0.7-0.4,1.2-0.5,1.4
			c-0.1,0.2-0.2,0.6-0.3,1.2c-0.2,0.6-0.4,1.2-0.6,1.9c-0.2,0.6-0.4,1.2-0.5,1.8s-0.3,0.9-0.3,1c0,0.2,0.1,0.3,0.1,0.4
			c0.1,0.1,0.2,0.1,0.4,0.1c0.1,0,0.3-0.1,0.6-0.3c0.3-0.2,0.5-0.4,0.8-0.7s0.4-0.5,0.7-0.8c0.2-0.3,0.4-0.4,0.4-0.5
			c0.1-0.1,0.3-0.2,0.4-0.1l0.4,0.4c0.1,0.1,0.1,0.3,0,0.4c-0.1,0.2-0.3,0.5-0.7,1c-0.4,0.4-0.8,0.9-1.4,1.3s-1.2,0.9-1.9,1.2
			c-0.7,0.4-1.5,0.5-2.2,0.5c-0.8,0-1.3-0.3-1.3-1c0-0.1,0-0.3,0.1-0.5s0.1-0.5,0.3-0.9c0.1-0.4,0.3-0.9,0.5-1.6
			c0.2-0.6,0.5-1.5,0.8-2.5l-0.3-0.1c-0.4,0.6-0.9,1.3-1.5,2.1s-1.2,1.5-1.9,2.2c-0.7,0.7-1.5,1.2-2.2,1.7c-0.8,0.4-1.6,0.7-2.4,0.7
			c-0.3,0-0.5-0.1-0.8-0.2s-0.6-0.3-0.8-0.6c-0.3-0.3-0.4-0.6-0.6-0.9s-0.3-0.7-0.3-1.2c0-0.8,0.1-1.8,0.4-2.9
			c0.3-1,0.7-2.1,1.2-3.1s1.1-2.1,1.8-3c0.7-1,1.4-1.8,2.2-2.6s1.7-1.3,2.5-1.8c0.9-0.4,1.8-0.7,2.6-0.7c0.9,0,1.5,0.1,2,0.4
			c0.4,0.3,0.8,0.6,1,0.9l0.6-1.1c0.1-0.2,0.3-0.3,0.6-0.3L338.6,100.8L338.6,100.8L338.6,100.8z M318.1,112.4
			c0,1.5-0.6,2.8-1.7,3.8s-2.6,1.5-4.4,1.5c-1.3,0-2.3-0.2-2.9-0.6s-1-1-1-1.7c0-0.4,0.1-0.9,0.4-1.2s0.6-0.4,1.1-0.4
			c0.4,0,0.9,0.1,1.2,0.4c0.3,0.3,0.6,0.6,0.7,1.2c0.1,0.3,0.3,0.6,0.4,0.8c0.2,0.2,0.4,0.3,0.8,0.3c0.6,0,1-0.2,1.4-0.6
			s0.6-1,0.6-1.9c0-0.6-0.2-1.3-0.6-1.9s-0.8-1.3-1.2-2c-0.2-0.3-0.4-0.6-0.6-1c-0.2-0.3-0.3-0.6-0.4-0.9s-0.3-0.6-0.3-1
			c-0.1-0.3-0.1-0.7-0.1-1.2c0-0.6,0.1-1.2,0.4-1.9c0.3-0.6,0.6-1.2,1.2-1.6c0.5-0.4,1.1-0.8,1.9-1.2c0.7-0.3,1.5-0.4,2.5-0.4
			c0.3,0,0.7,0.1,1,0.1c0.4,0.1,0.7,0.2,1,0.4c0.3,0.2,0.6,0.4,0.8,0.6c0.2,0.3,0.3,0.6,0.3,1c0,0.5-0.1,1-0.4,1.2
			c-0.3,0.3-0.6,0.4-1.1,0.4c-0.4,0-0.7-0.1-1-0.3c-0.3-0.2-0.5-0.5-0.6-1.1c-0.1-0.3-0.2-0.5-0.3-0.7c-0.1-0.3-0.3-0.4-0.6-0.4
			c-0.4,0-0.8,0.2-1.2,0.5c-0.4,0.3-0.5,1-0.5,1.8c0,0.3,0.1,0.7,0.2,1c0.1,0.4,0.3,0.7,0.5,1s0.4,0.6,0.6,0.8
			c0.2,0.3,0.4,0.4,0.4,0.6c0.4,0.5,0.8,1.2,1,1.9C318,110.7,318.1,111.5,318.1,112.4z M292.4,117.1c-0.1,0.1-0.1,0.1-0.2,0.2
			s-0.2,0.1-0.4,0.1h-2.6c-0.2,0-0.3-0.1-0.3-0.1c-0.1-0.1-0.1-0.2,0-0.4l2.7-7.3c0.2-0.6,0.4-1.2,0.6-1.9c0.3-0.6,0.4-1.2,0.6-1.7
			s0.3-0.9,0.4-1.3s0.1-0.6,0.1-0.7c0-0.4-0.2-0.6-0.6-0.6c-0.2,0-0.4,0.1-0.7,0.3c-0.3,0.2-0.5,0.3-0.8,0.6
			c-0.3,0.2-0.5,0.4-0.8,0.7c-0.3,0.3-0.4,0.4-0.6,0.6c-0.1,0.2-0.2,0.2-0.4,0.1l-0.4-0.4c-0.2-0.1-0.3-0.3-0.1-0.4
			c0.1-0.2,0.4-0.4,0.8-0.9c0.4-0.4,0.9-0.8,1.5-1.2c0.6-0.4,1.3-0.8,2.1-1.1c0.8-0.3,1.6-0.4,2.5-0.4c0.6,0,1,0.1,1.2,0.4
			s0.3,0.6,0.3,0.9c0,0.2-0.1,0.5-0.2,1c-0.1,0.4-0.3,0.9-0.4,1.4c-0.2,0.5-0.4,1-0.6,1.5s-0.4,1-0.6,1.4l0.3,0.2
			c0.3-0.4,0.7-1.1,1.3-1.8c0.6-0.8,1.2-1.5,2.1-2.2c0.8-0.8,1.6-1.4,2.5-1.9s1.8-0.8,2.8-0.8c0.8,0,1.3,0.3,1.7,0.7
			c0.4,0.4,0.6,1,0.6,1.5c0,0.3-0.1,0.6-0.1,1c-0.1,0.4-0.2,0.8-0.4,1.4c-0.2,0.6-0.4,1.2-0.7,1.9c-0.3,0.7-0.6,1.6-1,2.7
			c-0.5,1.3-0.9,2.4-1.2,3.1c-0.3,0.8-0.4,1.3-0.4,1.5c0,0.4,0.2,0.6,0.4,0.6c0.1,0,0.3-0.1,0.6-0.2c0.3-0.1,0.5-0.3,0.8-0.5
			s0.4-0.4,0.7-0.6c0.3-0.3,0.4-0.4,0.4-0.5c0.2-0.1,0.3-0.1,0.4,0.1l0.4,0.3c0.1,0.1,0.1,0.3,0,0.4s-0.4,0.4-0.8,0.8
			s-0.8,0.8-1.4,1.2s-1.2,0.8-2,1c-0.8,0.3-1.5,0.4-2.4,0.4c-0.4,0-0.8-0.1-1-0.3s-0.3-0.5-0.3-0.9s0.3-1.2,0.7-2.4
			c0.4-1.2,1-2.8,1.7-4.5c0.1-0.4,0.3-0.9,0.5-1.5c0.2-0.5,0.4-1.1,0.6-1.6s0.3-1,0.4-1.3c0.1-0.4,0.2-0.6,0.2-0.8
			c0-0.6-0.3-1-0.9-1c-0.3,0-0.7,0.2-1.2,0.5c-0.5,0.4-1.1,0.8-1.7,1.4s-1.2,1.2-1.7,1.9c-0.6,0.7-1.1,1.4-1.5,2.1
			c-0.4,0.6-0.8,1.3-1.2,1.9c-0.4,0.6-0.7,1.3-1,2.1L292.4,117.1z M283.8,100.3c0.2-0.8,0.2-1.3,0-1.5c-0.2-0.3-0.4-0.4-0.8-0.4
			h-1.4c-0.2,0-0.3-0.1-0.3-0.3l0.2-0.8c0-0.1,0.1-0.2,0.4-0.2c0.2,0,0.6,0,1.4,0.1s1.8,0.1,2.9,0.1c1.3,0,2.3,0,2.9-0.1
			s1.1-0.1,1.3-0.1c0.3,0,0.4,0.1,0.4,0.4l-0.2,0.6c0,0.2-0.1,0.3-0.3,0.3h-0.8c-0.6,0-1.2,0.1-1.5,0.4s-0.6,0.8-0.9,1.7l-3.7,13.9
			c-0.2,0.7-0.2,1.2,0.1,1.5c0.3,0.3,0.6,0.5,1.3,0.5h1.1c0.2,0,0.3,0.1,0.2,0.3l-0.1,0.6c-0.1,0.1-0.1,0.2-0.1,0.3
			s-0.1,0.1-0.3,0.1c-0.2,0-0.6,0-1.4-0.1s-1.9-0.1-3.5-0.1c-1.3,0-2.3,0-3.1,0.1c-0.8,0.1-1.2,0.1-1.4,0.1c-0.1,0-0.3-0.1-0.3-0.3
			l0.2-0.6c0-0.2,0.1-0.3,0.3-0.3h1.2c0.4,0,0.8-0.1,1-0.1s0.4-0.2,0.6-0.4c0.1-0.2,0.3-0.4,0.4-0.6c0.1-0.3,0.2-0.6,0.3-1
			L283.8,100.3z"/>
		<path id="bilim_x0020_ve_x0020_insan.cdr_0" class="st0" d="M396.6,96.2c0.1,0.1,0.1,0.1,0.1,0.2c-0.1,0.2-0.3,0.4-0.6,0.7
			c-0.3,0.3-0.6,0.5-0.9,0.8c-0.4,0.3-0.8,0.4-1.2,0.6c-0.4,0.1-1,0.3-1.5,0.3c-0.8,0-1.4-0.2-1.8-0.6s-0.6-1-0.6-1.9
			c0-0.4,0.1-1,0.2-1.5s0.3-1,0.6-1.6c0.3-0.5,0.5-1,0.9-1.5s0.8-1,1.3-1.4c0.4-0.4,1-0.8,1.6-1s1.2-0.4,1.9-0.4
			c0.6,0,1,0.1,1.2,0.4c0.3,0.3,0.4,0.6,0.4,1c0,0.6-0.2,1.2-0.6,1.7s-0.9,1-1.6,1.3c-0.6,0.3-1.2,0.6-1.9,0.7
			c-0.6,0.1-1.1,0.3-1.5,0.3c-0.1,0.1-0.1,0.3-0.1,0.6c-0.1,0.3-0.1,0.6-0.1,1.1c0,0.4,0.1,0.8,0.4,1.1s0.5,0.4,0.9,0.4
			c0.5,0,1-0.1,1.5-0.4c0.4-0.3,0.8-0.6,1-1c0.1-0.1,0.1-0.1,0.2-0.1L396.6,96.2z M395.3,89.9c-0.3,0-0.6,0.1-0.8,0.4
			c-0.3,0.3-0.5,0.6-0.8,0.9c-0.3,0.4-0.4,0.8-0.6,1.2c-0.2,0.4-0.3,0.8-0.4,1.1c0.2,0,0.6-0.1,1-0.2s0.9-0.4,1.3-0.7
			c0.3-0.2,0.5-0.5,0.7-0.8s0.3-0.6,0.3-1c0-0.2-0.1-0.4-0.1-0.6C395.8,90,395.6,89.9,395.3,89.9z M380.2,90.6c-0.4,0-0.8,0.1-1,0.3
			c-0.2,0.2-0.3,0.4-0.3,0.6c0.1,0.2,0.1,0.3,0.3,0.4c0.1,0.1,0.3,0.2,0.4,0.3c0.1,0.1,0.2,0.1,0.3,0.3c0.1,0.1,0.2,0.3,0.2,0.6
			s-0.1,0.4-0.2,0.6c-0.1,0.1-0.4,0.3-0.8,0.3c-0.3,0-0.5-0.1-0.8-0.4s-0.4-0.6-0.4-1.2c0-0.5,0.1-1,0.3-1.4c0.3-0.4,0.4-0.8,0.6-1
			c0.1-0.1,0.3-0.3,0.4-0.4s0.3-0.3,0.5-0.4s0.4-0.2,0.7-0.3c0.3-0.1,0.6-0.1,1.1-0.1c0.6,0,1.2,0,1.5,0s0.7,0,0.9-0.1
			s0.4-0.1,0.4-0.1c0.1,0,0.2,0,0.3,0c0.1,0,0.3,0.1,0.3,0.1c0.1,0.1,0.1,0.2-0.1,0.4c-0.3,0.4-0.4,0.8-0.7,1.2
			c-0.3,0.4-0.5,0.8-0.7,1.3c-0.2,0.4-0.4,1-0.6,1.5c-0.1,0.6-0.2,1.2-0.2,1.7c0,0.8,0.1,1.3,0.4,1.7c0.3,0.3,0.6,0.5,0.9,0.5
			c0.4,0,0.8-0.1,1.2-0.3c0.3-0.2,0.6-0.4,0.9-0.8c0.5-0.6,0.9-1.3,1.2-2s0.4-1.3,0.4-2.1c0-0.3,0-0.6-0.1-0.8
			c-0.1-0.2-0.1-0.4-0.3-0.6c-0.1-0.1-0.1-0.3-0.2-0.4c-0.1-0.2-0.1-0.3-0.1-0.4c0-0.3,0.1-0.4,0.3-0.7s0.6-0.4,1-0.4
			s0.6,0.2,0.8,0.5c0.2,0.3,0.3,0.6,0.3,1c0,0.7-0.1,1.4-0.3,2.2s-0.6,1.7-1.2,2.8c-0.3,0.4-0.6,0.9-1,1.3s-0.8,0.8-1.2,1.1
			s-0.9,0.6-1.4,0.8c-0.5,0.2-1,0.3-1.5,0.3c-0.4,0-0.7-0.1-0.9-0.2c-0.3-0.1-0.5-0.3-0.7-0.5s-0.3-0.4-0.4-0.7
			c-0.1-0.3-0.2-0.6-0.2-1s0.1-0.8,0.2-1.3c0.1-0.4,0.3-0.9,0.4-1.3c0.3-0.8,0.7-1.5,1.2-2.1s0.9-1.2,1.3-1.6l-0.1-0.1
			c-0.3,0.3-0.6,0.4-1,0.5s-0.8,0.2-1.2,0.2h-1.1L380.2,90.6L380.2,90.6z"/>
		<path id="bilim_x0020_ve_x0020_insan.cdr_1" class="st2" d="M349.3,91.2c0.2-0.6,0.4-1.1,0.6-1.7s0.4-1.1,0.6-1.5s0.3-0.8,0.4-1.2
			c0.1-0.3,0.2-0.6,0.2-0.7c0-0.3-0.1-0.5-0.4-0.5c-0.1,0-0.3,0.1-0.6,0.3s-0.5,0.4-0.8,0.6c-0.3,0.3-0.5,0.5-0.8,0.8
			s-0.4,0.4-0.4,0.5c-0.1,0.1-0.3,0.1-0.4,0l-0.4-0.4c-0.1-0.1-0.1-0.1-0.1-0.2s0-0.1,0.1-0.2c0.2-0.2,0.4-0.5,0.8-1
			c0.4-0.4,0.9-0.8,1.4-1.2c0.5-0.4,1.2-0.8,1.8-1.1c0.6-0.3,1.3-0.4,1.9-0.4s1,0.1,1.2,0.3c0.3,0.3,0.4,0.6,0.4,1
			c0,0.3-0.1,0.7-0.3,1.2c-0.2,0.6-0.4,1.2-0.7,1.8c-0.3,0.6-0.5,1.2-0.8,1.7c-0.3,0.6-0.4,1-0.5,1.2l0.3,0.1
			c0.4-0.6,0.9-1.3,1.4-2.2c0.6-0.8,1.2-1.7,1.9-2.4c0.7-0.8,1.5-1.4,2.2-1.9c0.8-0.5,1.6-0.8,2.4-0.8c0.6,0,1.1,0.2,1.5,0.5
			c0.3,0.3,0.5,0.8,0.5,1.2c0,0.3-0.1,0.8-0.2,1.3s-0.3,1-0.5,1.6s-0.4,1.1-0.6,1.6s-0.4,0.9-0.6,1.2l0.3,0.1c0.4-0.8,1-1.5,1.6-2.4
			s1.2-1.7,1.9-2.5c0.7-0.8,1.4-1.4,2.2-1.9c0.8-0.5,1.5-0.8,2.4-0.8c0.6,0,1.2,0.2,1.5,0.7c0.3,0.4,0.5,0.9,0.5,1.3
			c0,0.5-0.2,1.3-0.6,2.3s-0.8,2.3-1.4,3.9c-0.4,1.1-0.7,1.9-1,2.7c-0.3,0.7-0.4,1.2-0.4,1.5c0.1,0.3,0.2,0.5,0.4,0.5
			c0.2,0,0.4-0.1,0.7-0.4s0.6-0.5,0.9-0.8s0.5-0.6,0.8-0.9c0.2-0.3,0.3-0.4,0.4-0.5s0.2-0.2,0.3-0.1l0.5,0.3
			c0.1,0.1,0.1,0.1,0.1,0.2s0,0.2-0.1,0.3c-0.1,0.1-0.3,0.3-0.6,0.8c-0.4,0.4-0.8,1-1.5,1.5c-0.6,0.6-1.3,1-2.1,1.5
			c-0.8,0.4-1.6,0.6-2.4,0.6c-0.4,0-0.7-0.1-0.9-0.3c-0.2-0.3-0.3-0.4-0.3-0.8s0.2-1.2,0.6-2.2c0.4-1.1,0.9-2.5,1.6-4.2
			c0.6-1.4,1-2.5,1.2-3.1c0.3-0.7,0.4-1.2,0.4-1.5c0-0.5-0.3-0.7-0.8-0.7c-0.2,0-0.5,0.2-1,0.6c-0.4,0.4-1,0.9-1.5,1.5
			c-0.6,0.6-1.2,1.3-1.7,2.1c-0.6,0.8-1.2,1.6-1.7,2.5c-0.1,0.2-0.3,0.5-0.6,1c-0.3,0.4-0.5,1-0.8,1.6l-1.2,3.1
			c-0.1,0.2-0.3,0.3-0.5,0.3h-2.3c-0.3,0-0.4-0.1-0.4-0.4l2.3-6c0.3-0.6,0.4-1.2,0.7-1.9c0.2-0.6,0.4-1.2,0.6-1.6s0.3-0.9,0.4-1.2
			c0.1-0.3,0.2-0.6,0.2-0.7c0-0.2-0.1-0.4-0.2-0.5S359,86,358.7,86c-0.2,0-0.5,0.2-1,0.5c-0.4,0.4-0.9,0.8-1.5,1.4
			c-0.5,0.6-1.1,1.2-1.7,1.9c-0.6,0.8-1.2,1.5-1.7,2.2c-0.3,0.4-0.5,0.8-0.8,1.3s-0.6,1.1-0.8,1.7l-1,3c-0.1,0.2-0.3,0.3-0.6,0.3
			h-2.2c-0.1,0-0.2-0.1-0.3-0.1c-0.1-0.1-0.1-0.2,0-0.3L349.3,91.2z M343.7,78.9c-0.7,0-1.3-0.2-1.6-0.6c-0.3-0.4-0.5-0.8-0.5-1.3
			c0-0.4,0.2-0.9,0.6-1.3s0.9-0.6,1.4-0.6c0.7,0,1.3,0.2,1.7,0.6c0.4,0.4,0.6,0.8,0.6,1.2c0,0.2-0.1,0.4-0.1,0.7
			c-0.1,0.3-0.3,0.4-0.4,0.6s-0.4,0.4-0.7,0.5C344.3,78.9,344,78.9,343.7,78.9z M343.1,88.2l-2.1,5.5c-0.3,0.7-0.4,1.2-0.5,1.5
			s-0.1,0.6-0.1,0.8c0,0.3,0.1,0.5,0.4,0.5c0.2,0,0.4-0.1,0.7-0.4c0.3-0.2,0.6-0.4,0.9-0.7c0.3-0.3,0.6-0.5,0.8-0.8
			c0.3-0.3,0.4-0.4,0.4-0.4c0.1-0.2,0.2-0.2,0.3-0.1l0.4,0.4c0.1,0.1,0.1,0.1,0.1,0.2s0,0.1-0.1,0.2s-0.3,0.3-0.6,0.7
			c-0.3,0.4-0.8,0.8-1.4,1.3c-0.6,0.4-1.3,0.8-2.1,1.2c-0.8,0.4-1.7,0.5-2.7,0.5c-0.4,0-0.6-0.1-0.8-0.3c-0.1-0.2-0.3-0.4-0.3-0.7
			c0-0.4,0.1-1,0.4-2s0.8-2.4,1.5-4.4l1-2.8c0.2-0.5,0.3-0.9,0.4-1.2c0.1-0.4,0.1-0.6,0.1-0.8c0-0.3-0.1-0.4-0.4-0.4
			c-0.1,0-0.3,0.1-0.6,0.3s-0.5,0.4-0.8,0.7s-0.5,0.5-0.8,0.8s-0.4,0.5-0.6,0.6c-0.1,0.1-0.3,0.1-0.4,0l-0.4-0.3
			c-0.1-0.1-0.2-0.3-0.1-0.3s0.3-0.3,0.7-0.8c0.4-0.4,0.9-1,1.5-1.5s1.3-1,2.1-1.5c0.8-0.4,1.5-0.6,2.4-0.6s1.3,0.4,1.3,1.2
			c0,0.4-0.1,0.9-0.3,1.5C343.6,86.6,343.4,87.4,343.1,88.2z M333.2,77.5c0.3-0.6,0.3-1.2,0.3-1.6c-0.1-0.4-0.4-0.6-0.9-0.6h-1.2
			c-0.1,0-0.2-0.1-0.1-0.3l0.2-0.8c0.1-0.1,0.1-0.2,0.3-0.2h5.6c0.3,0,0.4,0.2,0.3,0.5l-7.3,19.7c-0.1,0.3-0.2,0.5-0.3,0.8
			s-0.1,0.5-0.1,0.7s0,0.4,0.1,0.5s0.2,0.2,0.4,0.2c0.2,0,0.4-0.1,0.6-0.2c0.3-0.1,0.5-0.3,0.8-0.5s0.5-0.4,0.7-0.6s0.4-0.4,0.5-0.5
			s0.3-0.1,0.4,0.1l0.4,0.4c0.1,0.1,0.1,0.1,0.1,0.2s0,0.1-0.1,0.3c-0.1,0.1-0.3,0.3-0.6,0.6c-0.4,0.3-0.8,0.8-1.5,1.2
			c-0.6,0.4-1.3,0.8-2.1,1.1c-0.8,0.3-1.5,0.5-2.3,0.5c-0.3,0-0.6-0.1-0.9-0.4s-0.4-0.6-0.4-0.9c0-0.1,0.1-0.4,0.1-0.6
			c0.1-0.3,0.2-0.6,0.3-1c0.1-0.4,0.3-0.7,0.4-1c0.1-0.4,0.3-0.6,0.3-0.9L333.2,77.5z M323.8,78.9c-0.7,0-1.2-0.2-1.6-0.6
			c-0.3-0.4-0.5-0.8-0.5-1.3c0-0.4,0.2-0.9,0.6-1.3s0.9-0.6,1.4-0.6c0.7,0,1.3,0.2,1.7,0.6c0.4,0.4,0.6,0.8,0.6,1.2
			c0,0.2-0.1,0.4-0.1,0.7c-0.1,0.3-0.3,0.4-0.4,0.6c-0.2,0.2-0.4,0.4-0.7,0.5S324.2,78.9,323.8,78.9z M323.1,88.2l-2.1,5.5
			c-0.3,0.7-0.4,1.2-0.5,1.5s-0.1,0.6-0.1,0.8c0,0.3,0.1,0.5,0.4,0.5c0.2,0,0.4-0.1,0.7-0.4c0.3-0.2,0.6-0.4,0.9-0.7
			c0.3-0.3,0.6-0.5,0.8-0.8c0.3-0.3,0.4-0.4,0.4-0.4c0.1-0.2,0.2-0.2,0.3-0.1l0.4,0.4c0.1,0.1,0.1,0.1,0.1,0.2s0,0.1-0.1,0.2
			s-0.3,0.3-0.6,0.7c-0.3,0.4-0.8,0.8-1.3,1.3c-0.6,0.4-1.3,0.8-2.1,1.2c-0.8,0.4-1.7,0.5-2.7,0.5c-0.4,0-0.6-0.1-0.8-0.3
			c-0.1-0.2-0.3-0.4-0.3-0.7c0-0.4,0.1-1,0.4-2s0.8-2.4,1.5-4.4l1-2.8c0.2-0.5,0.3-0.9,0.4-1.2c0.1-0.4,0.1-0.6,0.1-0.8
			c0-0.3-0.1-0.4-0.4-0.4c-0.1,0-0.3,0.1-0.6,0.3c-0.3,0.2-0.5,0.4-0.8,0.7c-0.3,0.3-0.5,0.5-0.8,0.8s-0.4,0.5-0.6,0.6
			c-0.1,0.1-0.3,0.1-0.4,0l-0.4-0.3c-0.1-0.1-0.2-0.3-0.1-0.3c0.1-0.1,0.3-0.3,0.7-0.8c0.4-0.4,0.9-1,1.5-1.5s1.3-1,2.1-1.5
			s1.5-0.6,2.4-0.6s1.3,0.4,1.3,1.2c0,0.4-0.1,0.9-0.3,1.5C323.7,86.6,323.5,87.4,323.1,88.2z M300.4,94.6c-0.1,0.6-0.2,1-0.2,1.3
			s0.2,0.6,0.5,0.8c0.2,0.1,0.6,0.3,1,0.3c0.4,0.1,0.9,0.1,1.2,0.1c1,0,1.8-0.2,2.6-0.5c0.7-0.3,1.3-0.8,1.8-1.3
			c0.4-0.5,0.8-1.2,1.1-1.9c0.3-0.7,0.4-1.4,0.4-2.2c0-1-0.2-1.7-0.6-2.3c-0.4-0.6-0.9-1.1-1.5-1.5s-1.2-0.6-1.9-0.8
			c-0.7-0.1-1.3-0.2-1.9-0.3h-0.4L300.4,94.6z M276.1,74.8c5.9,5.2,15.6-0.7,25.4-0.7c0.4,0,1,0,1.4,0s1-0.1,1.4-0.1s1,0,1.4,0
			s1,0,1.4,0c0.2,0,0.6,0,1,0s1,0.1,1.5,0.1s1.2,0.2,1.7,0.4c0.6,0.2,1.2,0.4,1.6,0.7c0.6,0.4,1.1,0.8,1.5,1.5
			c0.4,0.6,0.6,1.4,0.6,2.3c0,1.1-0.2,2.1-0.6,2.9s-1,1.5-1.7,2.1s-1.5,1-2.4,1.3s-1.8,0.6-2.7,0.8c-0.1,0-0.2,0.1-0.1,0.1
			c1.7,0.4,3,1.2,4,2.1c0.9,1,1.4,2.2,1.4,3.7c0,0.1,0,0.3-0.1,0.6c-0.1,0.3-0.1,0.6-0.3,1c-0.1,0.4-0.3,0.8-0.6,1.3
			c-0.3,0.4-0.6,0.9-1.2,1.3c-0.3,0.3-0.8,0.6-1.2,0.9c-0.4,0.3-1,0.5-1.7,0.7c-0.6,0.2-1.4,0.3-2.2,0.4c-0.8,0.1-1.8,0.1-2.9,0.1
			c-0.8,0-1.7,0-2.6-0.1s-1.8-0.1-2.6-0.1s-1.7,0-2.5,0.1s-1.7,0.1-2.6,0.1c-0.3,0-0.4-0.1-0.3-0.4l0.1-0.8c0-0.2,0.1-0.3,0.3-0.3
			h1.3c0.6,0,1.1-0.2,1.4-0.6s0.6-0.9,0.8-1.5l4.5-17.1c0.1-0.6,0.2-1,0.2-1.3s-0.1-0.5-0.4-0.7C296.3,73.4,278.9,90,276.1,74.8z
			 M302.8,85.2c0.3,0.1,0.6,0.1,1,0.1s0.6,0,0.8,0c0.8,0,1.6-0.1,2.4-0.3c0.8-0.3,1.5-0.6,2.1-1.1s1.1-1.1,1.5-1.9s0.6-1.7,0.6-2.7
			c0-0.5-0.1-1-0.4-1.5s-0.6-0.9-1-1.3s-0.9-0.6-1.5-0.9c-0.6-0.2-1.2-0.3-1.8-0.3c-0.2,0-0.4,0-0.6,0s-0.4,0.1-0.6,0.1L302.8,85.2z
			"/>
	</g>
</g>
</svg>
